<?xml version="1.0" encoding="UTF-8"?>
<svg id="Camada_2" data-name="Camada 2" xmlns="http://www.w3.org/2000/svg" viewBox="0 0 162.09 31.02">
  <defs>
    <style>
      .cls-1 {
        fill: #fff;
      }

      .cls-2 {
        fill: #c41a35;
      }
    </style>
  </defs>
  <g id="Camada_1-2" data-name="Camada 1">
    <g>
      <g>
        <path class="cls-1" d="m57.16,10.92c.1-.33.24-.81.43-1.45h-2.85c-.19.64-.48,1.61-.86,2.91h4.27c.39,0,.68.14.88.41.18.29.22.63.1,1.02-.38,1.3-.96,3.23-1.71,5.8-.12.41-.36.75-.71,1.02-.37.29-.74.43-1.13.43h-5.68c-.4,0-.69-.14-.87-.43-.2-.28-.24-.62-.12-1.02.19-.64.47-1.6.85-2.89h2.83c-.09.31-.24.8-.43,1.45h2.85c.19-.65.48-1.62.86-2.91h-4.25c-.4,0-.69-.14-.88-.41-.2-.29-.24-.64-.12-1.04.19-.64.43-1.45.71-2.42.29-.97.62-2.1,1-3.38.12-.39.36-.73.73-1.02.35-.28.72-.41,1.12-.41h5.68c.39,0,.68.14.88.41.18.29.22.63.1,1.02-.19.66-.48,1.62-.86,2.91h-2.83Z"/>
        <path class="cls-1" d="m71.64,6.58c-.76,2.57-1.33,4.5-1.71,5.8-.38,1.28-.66,2.25-.85,2.89-.76,2.58-1.34,4.51-1.71,5.8h-2.83c.76-2.58,1.34-4.51,1.71-5.8h-2.85c-.76,2.58-1.34,4.51-1.71,5.8h-2.83c.43-1.44.78-2.65,1.07-3.62.29-.97.5-1.7.65-2.18.43-1.45.72-2.42.85-2.89.86-2.91,1.43-4.84,1.71-5.8h2.83c-.86,2.9-1.43,4.83-1.71,5.8h2.85c.86-2.91,1.43-4.84,1.71-5.8h2.83Z"/>
        <path class="cls-1" d="m81.59,8.01c-.76,2.58-1.91,6.45-3.43,11.6-.12.41-.36.75-.71,1.02-.37.29-.74.43-1.13.43h-5.68c-.4,0-.69-.14-.87-.43-.2-.28-.24-.62-.12-1.02.29-.97.72-2.42,1.29-4.36.24-.8.53-1.79.88-2.99.36-1.22.78-2.63,1.26-4.25.12-.39.36-.73.73-1.02.35-.28.72-.41,1.12-.41h5.68c.39,0,.68.14.88.41.18.29.22.63.1,1.02m-8.68,10.16h2.85c.04-.13.1-.32.17-.57.53-1.81,1.34-4.52,2.41-8.14h-2.85c-.29.97-.72,2.42-1.28,4.34-.29.97-.72,2.42-1.29,4.36"/>
        <path class="cls-1" d="m91.95,8.01c-.38,1.3-.96,3.23-1.72,5.8-.12.41-.36.75-.71,1.04-.36.28-.74.41-1.12.41h-4.27c-.38,1.28-.95,3.22-1.71,5.8h-2.83c.19-.64.43-1.45.72-2.42.28-.96.62-2.08,1-3.38.19-.64.47-1.6.85-2.89.19-.65.48-1.62.86-2.91.19-.64.47-1.6.85-2.89h7.1c.39,0,.68.14.88.41.18.29.22.63.1,1.02m-6.97,4.36h2.85c.03-.12.09-.29.15-.51.16-.54.4-1.34.71-2.4h-2.85c-.19.64-.48,1.61-.86,2.91"/>
        <path class="cls-1" d="m102.32,8.01c-.38,1.3-.96,3.23-1.72,5.8-.12.41-.36.75-.71,1.04-.36.28-.74.41-1.12.41h-4.27c-.38,1.28-.95,3.22-1.71,5.8h-2.83c.19-.64.43-1.45.72-2.42.28-.96.62-2.08,1-3.38.19-.64.47-1.6.85-2.89.19-.65.48-1.62.86-2.91.19-.64.47-1.6.85-2.89h7.1c.39,0,.68.14.88.41.18.29.22.63.1,1.02m-6.97,4.36h2.85c.03-.12.09-.29.15-.51.16-.54.4-1.34.71-2.4h-2.85c-.19.64-.48,1.61-.86,2.91"/>
        <path class="cls-1" d="m104.61,6.58h2.83c-.53,1.81-1.61,5.43-3.21,10.87-.18.6-.53,1.81-1.07,3.62h-2.83c.36-1.21.89-3.01,1.6-5.42.71-2.41,1.61-5.43,2.68-9.06"/>
        <path class="cls-1" d="m117.38,8.01c-.86,2.91-2.15,7.26-3.86,13.05h-2.83c.76-2.58,1.91-6.45,3.43-11.6h-2.85c-.76,2.58-1.91,6.45-3.43,11.6h-2.83c.48-1.61,1.07-3.62,1.78-6.03.71-2.41,1.55-5.23,2.5-8.45h7.1c.39,0,.68.14.88.41.18.29.22.63.1,1.02"/>
        <path class="cls-1" d="m124.06,10.92c.1-.33.24-.81.43-1.45h-2.85c-.57,1.94-1.43,4.84-2.58,8.71h2.85c.19-.65.48-1.62.86-2.91h-1.42c.19-.64.47-1.6.85-2.89h4.25c-.19.64-.47,1.61-.85,2.89-.29.97-.72,2.42-1.28,4.34-.12.41-.36.75-.71,1.02-.37.29-.74.43-1.13.43h-5.68c-.4,0-.69-.14-.87-.43-.2-.28-.24-.62-.12-1.02.29-.97.72-2.42,1.29-4.36.24-.8.53-1.79.88-2.99.36-1.22.78-2.63,1.26-4.25.12-.39.36-.73.73-1.02.35-.28.73-.41,1.12-.41h5.68c.39,0,.68.14.88.41.18.29.22.63.1,1.02-.19.66-.48,1.62-.86,2.91h-2.83Z"/>
        <path class="cls-1" d="m137.59,10.92c.1-.33.24-.81.43-1.45h-2.85c-.57,1.94-1.43,4.84-2.58,8.71h2.85c.1-.33.24-.81.43-1.45h2.83c-.19.64-.47,1.61-.85,2.89-.12.41-.36.75-.71,1.02-.37.29-.74.43-1.13.43h-5.68c-.4,0-.69-.14-.87-.43-.2-.28-.24-.62-.12-1.02.29-.97.72-2.42,1.29-4.36.24-.8.53-1.79.88-2.99.36-1.22.78-2.63,1.26-4.25.12-.39.36-.73.73-1.02.35-.28.72-.41,1.12-.41h5.68c.39,0,.68.14.88.41.18.29.22.63.1,1.02-.19.66-.48,1.62-.86,2.91h-2.83Z"/>
        <path class="cls-1" d="m147.79,21.06h-2.83c.38-1.28.95-3.22,1.71-5.8h-2.85c-.38,1.28-.95,3.22-1.71,5.8h-2.83c.32-1.09.81-2.73,1.45-4.91.27-.9.6-2.03,1-3.38.4-1.36.87-2.95,1.41-4.76.12-.39.36-.73.73-1.02.35-.28.73-.41,1.12-.41h5.68c.39,0,.68.14.88.41.18.29.22.63.1,1.02-.86,2.91-2.15,7.26-3.86,13.05m-.26-8.69c.03-.12.09-.29.15-.51.16-.54.4-1.34.71-2.4h-2.85c-.19.64-.48,1.61-.86,2.91h2.85Z"/>
        <path class="cls-1" d="m158.9,13.81c.38,0,.68.14.87.43.19.28.22.62.1,1.02-.38,1.28-.95,3.22-1.71,5.8h-2.83c.38-1.28.95-3.22,1.71-5.8h-2.85c-.38,1.28-.95,3.22-1.71,5.8h-2.83c.38-1.28.95-3.22,1.71-5.8.19-.64.47-1.6.85-2.89.19-.64.43-1.45.72-2.42.29-.97.62-2.1,1-3.38h7.1c.39,0,.68.14.88.41.18.29.22.63.1,1.02-.29.97-.72,2.42-1.29,4.36-.12.39-.35.73-.71,1.02-.36.28-.74.41-1.12.41m-1-1.43c.03-.12.09-.29.15-.51.16-.54.4-1.34.71-2.4h-2.85c-.19.64-.48,1.61-.86,2.91h2.85Z"/>
        <path class="cls-1" d="m99.81,26.83l-.45,1.94c-.09.37-.22.85-.3,1.07-.11.27-.29.56-.47.7-.17.14-.43.27-.71.32-.2.04-.43.05-.89.05h-1.19l1.45-6.26h1.18c.55,0,.82.05,1.06.19.32.19.49.51.49.94,0,.27-.04.57-.16,1.05m-1.52-1.45h-.43l-1.12,4.85h.54c.5,0,.75-.09.92-.3.06-.08.12-.18.15-.28.08-.21.18-.53.24-.82l.45-2.01c.1-.42.12-.57.12-.77,0-.49-.22-.66-.88-.66"/>
        <polygon class="cls-1" points="102.15 30.92 101.39 30.92 102.83 24.66 103.58 24.66 102.15 30.92"/>
        <path class="cls-1" d="m108.51,26.26l-.06.28h-.7l.09-.39c.03-.13.05-.3.05-.4,0-.34-.2-.52-.55-.52-.51,0-.8.35-.8.94,0,.29.04.44.35.91l.61.96c.09.13.15.26.2.36.11.23.18.53.18.82,0,1.1-.63,1.76-1.68,1.76-.88,0-1.4-.45-1.4-1.21,0-.18.03-.38.08-.59l.12-.47h.74l-.07.3c-.1.4-.12.51-.12.67,0,.43.25.66.71.66.53,0,.85-.39.85-1.04,0-.28-.08-.52-.3-.86l-.68-1.06c-.26-.41-.38-.75-.38-1.11,0-1.05.62-1.69,1.64-1.69.81,0,1.21.35,1.21,1.03,0,.17-.04.37-.1.65"/>
        <polygon class="cls-1" points="113.58 25.36 112.46 25.36 111.18 30.92 110.4 30.92 111.69 25.36 110.47 25.36 110.64 24.66 113.75 24.66 113.58 25.36"/>
        <path class="cls-1" d="m118.14,27.65c-.2.25-.46.4-.82.46l.5,2.81h-.77l-.43-2.75h-.59l-.64,2.75h-.74l1.45-6.26h1.14c.66,0,.94.08,1.18.3.2.2.28.45.28.86,0,.67-.22,1.42-.55,1.83m-.36-2.08c-.12-.15-.28-.2-.78-.2h-.34l-.51,2.19h.35c.67,0,.95-.11,1.11-.42.16-.32.27-.8.27-1.15,0-.2-.03-.32-.12-.43"/>
        <polygon class="cls-1" points="120.83 30.92 120.07 30.92 121.52 24.66 122.27 24.66 120.83 30.92"/>
        <path class="cls-1" d="m127.42,26.5c-.08.3-.17.47-.35.65-.22.22-.47.34-.84.39.16,0,.35.09.51.21.2.16.3.42.3.8,0,.52-.18,1.19-.43,1.62-.15.26-.39.45-.7.58-.31.13-.67.17-1.32.17h-1.08l1.45-6.26h1.05c.73,0,1.09.12,1.3.43.13.2.2.45.2.82,0,.2-.03.37-.08.59m-1.35,1.56c-.1-.08-.35-.14-.47-.14-.02,0-.11,0-.26,0h-.39l-.52,2.33h.49c.55,0,.82-.11,1.01-.37.2-.29.35-.87.35-1.28,0-.25-.08-.43-.21-.53m.51-2.55c-.05-.05-.13-.1-.22-.12-.07-.02-.17-.04-.24-.04h-.58l-.43,1.86h.67c.59,0,.96-.48.96-1.27,0-.2-.05-.35-.15-.44"/>
        <path class="cls-1" d="m132.29,29.18c-.18.77-.34,1.15-.61,1.42-.27.27-.67.42-1.14.42-.86,0-1.35-.38-1.35-1.06,0-.21.02-.31.13-.82l1.04-4.49h.75l-1.12,4.84c-.03.1-.04.2-.04.29,0,.36.22.56.64.56.23,0,.43-.07.55-.2.15-.16.26-.41.4-1.03l1.03-4.47h.76l-1.05,4.52Z"/>
        <polygon class="cls-1" points="135.32 30.92 134.55 30.92 136 24.66 136.75 24.66 135.32 30.92"/>
        <path class="cls-1" d="m142,26.83l-.45,1.94c-.09.37-.22.85-.3,1.07-.11.27-.29.56-.47.7-.17.14-.43.27-.71.32-.2.04-.43.05-.89.05h-1.19l1.45-6.26h1.18c.55,0,.82.05,1.06.19.32.19.49.51.49.94,0,.27-.04.57-.16,1.05m-1.52-1.45h-.43l-1.12,4.85h.54c.5,0,.75-.09.92-.3.06-.08.12-.18.15-.28.08-.21.18-.53.24-.82l.45-2.01c.1-.42.12-.57.12-.77,0-.49-.22-.66-.88-.66"/>
        <path class="cls-1" d="m147.57,26.44l-.72,3.07c-.1.43-.23.75-.4.97-.26.35-.67.51-1.23.51-.92,0-1.45-.41-1.45-1.11,0-.2.03-.39.11-.73l.72-3.07c.24-1.04.77-1.51,1.68-1.51s1.38.43,1.38,1.14c0,.2-.03.42-.1.73m-1.33-1.21c-.27,0-.47.09-.61.27-.12.14-.18.33-.27.69l-.72,3.09c-.04.19-.07.36-.07.5,0,.37.24.58.66.58.44,0,.68-.26.83-.9l.73-3.05c.07-.3.1-.44.1-.59,0-.38-.23-.59-.65-.59"/>
        <path class="cls-1" d="m152.6,27.65c-.2.25-.46.4-.82.46l.5,2.81h-.77l-.43-2.75h-.59l-.64,2.75h-.74l1.45-6.26h1.14c.66,0,.94.08,1.18.3.2.2.28.45.28.86,0,.67-.22,1.42-.55,1.83m-.36-2.08c-.12-.15-.28-.2-.78-.2h-.34l-.51,2.19h.35c.67,0,.95-.11,1.11-.42.16-.32.27-.8.27-1.15,0-.2-.03-.32-.12-.43"/>
        <path class="cls-1" d="m157.24,30.92h-.77l.09-1.17h-1.16l-.46,1.17h-.82l2.54-6.26h1.06l-.48,6.26Zm-1.55-1.9h.93l.35-3.47-1.28,3.47Z"/>
      </g>
      <g>
        <g>
          <polygon class="cls-2" points="11.08 28.08 6.25 28.08 14.26 0 19.08 0 11.08 28.08"/>
          <polygon class="cls-2" points="4.83 28.08 0 28.08 8.01 0 12.83 0 4.83 28.08"/>
        </g>
        <path class="cls-2" d="m20.66,0l-8.01,28.08h30.62L51.28,0h-30.62Zm10.54,13.51c-.36,1.31-.89,3.26-1.59,5.86-.11.41-.35.75-.71,1.03-.38.29-.77.44-1.18.44h-6c-.42,0-.73-.15-.94-.44-.22-.28-.28-.62-.17-1.03.18-.65.44-1.62.79-2.92h2.99c-.09.32-.22.81-.4,1.47h3.01c.18-.66.45-1.64.8-2.94h-4.5c-.42,0-.74-.14-.94-.42-.22-.29-.27-.64-.16-1.05.18-.65.4-1.46.66-2.44.27-.98.57-2.12.93-3.42.11-.4.35-.74.73-1.03.36-.28.75-.42,1.17-.42h6c.41,0,.72.14.94.42.21.29.25.64.15,1.03-.18.66-.45,1.64-.8,2.94h-2.99c.09-.33.22-.82.4-1.47h-3.01c-.18.65-.44,1.63-.8,2.94h4.52c.41,0,.72.14.94.42.21.29.25.64.15,1.03Zm11.75-2.92h-2.99c.09-.33.22-.82.4-1.47h-3.01c-.53,1.96-1.33,4.89-2.39,8.8h3.01c.09-.33.22-.82.4-1.47h2.99c-.18.65-.44,1.62-.79,2.92-.11.41-.35.75-.71,1.03-.38.29-.77.44-1.18.44h-6c-.42,0-.73-.15-.94-.44-.22-.28-.28-.62-.17-1.03.27-.98.66-2.45,1.2-4.41.22-.81.49-1.81.82-3.02.33-1.23.72-2.66,1.16-4.29.11-.4.35-.74.73-1.03.36-.28.75-.42,1.17-.42h6c.41,0,.72.14.94.42.21.29.25.64.15,1.03-.18.66-.45,1.64-.8,2.94Z"/>
      </g>
    </g>
  </g>
</svg>